<svg id="Layer_1" enable-background="new 0 0 512.016 512.016" height="512" viewBox="0 0 512.016 512.016" width="512" xmlns="http://www.w3.org/2000/svg"><path d="m324.976 17.355h67.758v271.596h-67.758z" fill="#89b0e0" transform="matrix(-.707 -.707 .707 -.707 504.308 515.198)"/><path d="m300.29 163.806-61.415 61.415 47.912 47.912 60.407-60.408c-8.812-17.148-33.417-43.1-46.904-48.919z" fill="#6197d5"/><path d="m174.946 169.618c-92.477 0-167.444 74.967-167.444 167.444s74.967 167.444 167.444 167.444 167.444-74.967 167.444-167.444-74.967-167.444-167.444-167.444zm0 270.996c-57.19 0-103.552-46.362-103.552-103.552s46.362-103.552 103.552-103.552 103.552 46.362 103.552 103.552-46.362 103.552-103.552 103.552z" fill="#99ddfc"/><path d="m169.024 503.683c-10.42-21.877-18.846-44.683-25.596-67.96-41.777-13.335-72.034-52.462-72.034-98.661 0-44.496 28.067-82.433 67.461-97.084 1.858-7.265 3.883-14.49 6.071-21.669 3.589-11.776 7.73-23.412 13.046-34.531 2.265-4.738 4.77-9.479 7.709-13.901-88.167 4.809-158.179 77.818-158.179 167.185 0 90.612 71.976 164.402 161.873 167.342-.116-.241-.236-.479-.351-.721z" fill="#66cdf7"/><path d="m429.65 120.502c0 20.583 16.841 37.424 37.424 37.424 20.583 0 37.424-16.841 37.424-37.424v-68.296c.655-26.102-18.29-44.697-44.697-44.697h-68.296c-20.583 0-37.424 16.841-37.424 37.424 0 20.583 16.841 37.424 37.424 37.424" fill="#89b0e0"/><path d="m498.102 15.268c-9.597-9.841-23.198-15.26-38.298-15.26h-68.296c-24.771 0-44.925 20.153-44.925 44.924 0 16.757 9.228 31.39 22.863 39.112l-103.597 103.596c-26.508-16.187-57.635-25.523-90.903-25.523-36.423 0-71.336 11.085-100.965 32.059-3.381 2.393-4.182 7.074-1.789 10.455.131.185.271.359.415.528 2.489 2.928 6.844 3.522 10.039 1.26 27.082-19.169 58.998-29.302 92.299-29.302 88.194 0 159.945 71.751 159.945 159.946s-71.75 159.945-159.944 159.945-159.946-71.751-159.946-159.945c0-42.139 16.248-81.912 45.75-111.992 2.742-2.795 2.847-7.19.352-10.112-.144-.169-.293-.335-.455-.494-2.957-2.9-7.706-2.854-10.606.103-32.269 32.901-50.041 76.404-50.041 122.495 0 96.465 78.48 174.945 174.946 174.945s174.945-78.48 174.945-174.945c0-33.268-9.337-64.395-25.523-90.903l103.596-103.596c7.722 13.635 22.355 22.863 39.112 22.863 24.771 0 44.924-20.153 44.924-44.924v-68.207c.336-14.344-4.598-27.491-13.898-37.028zm-31.026 135.158c-10.798 0-20.968-6.031-26.197-15.471-3.995-7.212-3.728-14.871-3.728-22.814 0-4.142-3.358-7.5-7.5-7.5s-7.5 3.358-7.5 7.5c0 4.846-.229 9.771.441 14.582l-106.756 106.755c-10.489-14.229-23.077-26.817-37.306-37.306l106.756-106.756c4.048.563 8.136.441 12.211.441 4.142 0 7.5-3.358 7.5-7.5s-3.358-7.5-7.5-7.5c-8.038 0-15.517-.355-22.478-4.969-8.305-5.504-13.436-14.983-13.436-24.956 0-16.5 13.424-29.924 29.925-29.924h68.296c11.022 0 20.81 3.812 27.56 10.733 6.568 6.736 9.902 15.822 9.64 26.276-.001.063-.002.125-.002.188v68.297c-.002 16.5-13.426 29.924-29.926 29.924z"/><path d="m174.946 448.115c61.235 0 111.053-49.818 111.053-111.053s-49.818-111.052-111.053-111.052-111.053 49.818-111.053 111.053 49.818 111.052 111.053 111.052zm96.053-111.052c0 52.964-43.089 96.053-96.053 96.053s-96.053-43.089-96.053-96.053 43.089-96.053 96.053-96.053 96.053 43.089 96.053 96.053z"/></svg>