<?xml version="1.0" encoding="iso-8859-1"?>
<!-- Generator: Adobe Illustrator 19.0.0, SVG Export Plug-In . SVG Version: 6.00 Build 0)  -->
<svg xmlns="http://www.w3.org/2000/svg" xmlns:xlink="http://www.w3.org/1999/xlink" version="1.1" id="Layer_1" x="0px" y="0px" viewBox="0 0 501.996 501.996" style="enable-background:new 0 0 501.996 501.996;" xml:space="preserve" width="512" height="512">
<g>
	<g>
		<path style="fill:#FF7BAC;" d="M269.238,129.284c-19.275,1.443-37.03,8.429-51.67,19.365c3.744,2.801,7.336,5.896,10.737,9.297    c38.577,38.578,38.577,101.349,0,139.927c-3.44,3.44-7.076,6.568-10.867,9.394c-15.407,11.489-33.423,17.913-51.749,19.266    c-27.727,2.047-56.157-7.505-77.313-28.66v0c-38.577-38.578-38.577-101.349,0-139.927c21.197-21.196,49.696-30.742,77.473-28.647    c14.226-15.958,31.834-28.833,51.692-37.492c-54.273-23.53-119.844-13.145-164.146,31.156    c-57.867,57.867-57.867,152.024,0,209.891c22.633,22.633,50.817,36.412,80.21,41.341v21.794h-17.486    c-13.661,0-24.736,11.075-24.736,24.736c0,13.661,11.075,24.736,24.736,24.736h17.486v19.088    c0,13.661,11.075,24.736,24.736,24.736c13.661,0,24.736-11.075,24.736-24.736v-19.088h17.486    c13.661,0,24.736-11.075,24.736-24.736c0-13.661-11.075-24.736-24.736-24.736h-17.486v-21.794    c11.695-1.961,23.196-5.328,34.234-10.091c16.705-7.209,32.347-17.622,45.975-31.249c2.002-2.002,3.927-4.051,5.79-6.137    C319.16,270.66,319.212,185.406,269.238,129.284z"/>
		<path style="fill:#50A5DC;" d="M467.245,12.71h-78.377c-13.669,0-24.751,11.081-24.751,24.751    c0,13.669,11.081,24.751,24.751,24.751h18.624l-44.793,44.793c-24.284-17.309-53.974-27.501-86.001-27.501    c-21.016,0-41.02,4.398-59.157,12.305c-19.857,8.658-37.466,21.534-51.692,37.492c-23.407,26.257-37.656,60.847-37.656,98.707    c0,37.774,14.184,72.291,37.496,98.527c18.326-1.353,36.341-7.777,51.749-19.266c-24.113-18.074-39.743-46.876-39.743-79.261    c0-32.443,15.686-61.29,39.872-79.358c14.64-10.937,32.395-17.922,51.67-19.365c2.463-0.184,4.951-0.28,7.46-0.28    c54.59,0,99.003,44.412,99.003,99.003s-44.413,99.003-99.003,99.003c-2.564,0-5.106-0.098-7.622-0.291    c-1.863,2.086-3.789,4.135-5.79,6.137c-13.628,13.628-29.27,24.04-45.975,31.249c18.197,7.971,38.282,12.406,59.387,12.406    c81.885,0,148.504-66.619,148.504-148.504c0-32.027-10.192-61.717-27.501-86.001l44.793-44.793v18.624    c0,13.669,11.081,24.751,24.751,24.751c13.669,0,24.751-11.081,24.751-24.751V37.46C491.996,23.791,480.914,12.71,467.245,12.71z"/>
	</g>
	<g>
		<path d="M467.245,2.71h-78.377c-19.162,0-34.75,15.589-34.75,34.751c0,17.416,12.878,31.88,29.611,34.372L361.451,94.11    c-25.36-16.126-54.484-24.607-84.753-24.607c-20.47,0-40.361,3.861-59.193,11.478c-27.75-11.146-57.922-14.23-87.556-8.871    c-31.818,5.754-60.735,20.895-83.625,43.785c-61.766,61.766-61.766,162.267,0,224.033c21.39,21.389,47.964,35.978,77.281,42.504    v3.559h-7.486c-19.153,0-34.736,15.583-34.736,34.736s15.583,34.736,34.736,34.736h7.486v9.088    c0,19.153,15.583,34.736,34.736,34.736s34.736-15.583,34.736-34.736v-9.088h7.486c19.153,0,34.736-15.583,34.736-34.736    s-15.583-34.736-34.736-34.736h-7.486v-3.563c8.254-1.844,16.352-4.353,24.199-7.487c18.899,7.679,38.867,11.571,59.422,11.571    c87.399,0,158.504-71.104,158.504-158.504c0-30.269-8.481-59.393-24.607-84.753l22.277-22.277    c2.492,16.733,16.957,29.611,34.372,29.611c19.162,0,34.75-15.589,34.75-34.75V37.461C501.996,18.299,486.407,2.71,467.245,2.71z     M181.423,364.334c-4.817,0.808-8.346,4.978-8.346,9.862v21.794c0,5.523,4.477,10,10,10h17.486c8.125,0,14.736,6.61,14.736,14.736    s-6.61,14.736-14.736,14.736h-17.486c-5.523,0-10,4.477-10,10v19.088c0,8.125-6.61,14.736-14.736,14.736    s-14.736-6.61-14.736-14.736v-19.088c0-5.523-4.477-10-10-10H116.12c-8.125,0-14.736-6.61-14.736-14.736    s6.61-14.736,14.736-14.736h17.486c5.523,0,10-4.477,10-10v-21.794c0-4.885-3.529-9.055-8.346-9.862    c-28.487-4.777-54.35-18.107-74.792-38.549c-53.968-53.968-53.968-141.781,0-195.749c35.135-35.134,85.098-48.354,132.08-36.269    l0.029-0.002c-11.285,7.107-21.722,15.638-30.898,25.31l-0.001-0.008c-30.022-0.915-59.086,10.525-80.371,31.808    c-42.476,42.477-42.476,111.592,0,154.069c22.398,22.398,53.425,33.905,85.12,31.562c20.715-1.529,40.422-8.868,56.991-21.222    c4.227-3.152,8.251-6.631,11.96-10.34c42.476-42.477,42.476-111.592,0-154.07c-0.365-0.364-0.732-0.727-1.103-1.087    c9.553-5.203,19.979-8.592,30.796-10.011c43.443,52.479,42.277,129.098-3.45,180.281c-1.8,2.015-3.618,3.942-5.403,5.728    c-12.421,12.421-26.843,22.224-42.866,29.138C203.146,359.326,192.404,362.492,181.423,364.334z M144.922,140.034    c-17.35,25.926-26.727,56.472-26.727,87.973c0,31.406,9.327,61.875,26.583,87.755c-18.539-2.847-35.853-11.483-49.329-24.959    c-34.679-34.68-34.679-91.106,0-125.785C108.964,151.502,126.326,142.855,144.922,140.034z M217.547,161.554    c1.262,1.126,2.5,2.275,3.687,3.462c34.679,34.68,34.679,91.106,0,125.785c-1.222,1.222-2.496,2.404-3.796,3.56    c-18.993-16.904-29.743-40.685-29.743-66.355C187.696,202.279,198.485,178.463,217.547,161.554z M290.135,140.018    c42.724,6.497,75.566,43.48,75.566,87.99c0,44.559-32.915,81.572-75.707,88.009c17.299-25.851,26.661-56.398,26.685-87.983    C316.703,196.452,307.39,165.893,290.135,140.018z M481.996,115.838c0,8.133-6.617,14.75-14.75,14.75    c-8.134,0-14.751-6.617-14.751-14.75V97.214c0-4.044-2.437-7.691-6.173-9.239c-3.737-1.549-8.038-0.692-10.898,2.167    l-44.792,44.792c-3.454,3.454-3.907,8.898-1.072,12.876c16.776,23.537,25.644,51.268,25.644,80.197    c0,76.371-62.133,138.504-138.504,138.504c-11.694,0-23.17-1.44-34.31-4.296l-0.021,0.001c10.09-6.31,19.457-13.756,27.991-22.289    c0.959-0.959,1.924-1.954,2.89-2.974l0,0.002c1.152,0.036,2.304,0.054,3.45,0.054c60.104,0,109.003-48.898,109.003-109.002    c0-60.104-48.898-109.003-109.003-109.003c-2.714,0-5.475,0.104-8.207,0.308c-20.621,1.544-40.299,8.918-56.909,21.326    c-27.481,20.529-43.887,53.191-43.887,87.369c0,29.399,12.149,57.693,33.044,78.093c-9.548,5.173-19.997,8.54-30.866,9.947    c-20.465-24.789-31.679-55.854-31.679-88.041c0-33.955,12.473-66.647,35.121-92.053c13.31-14.932,29.985-27.027,48.224-34.979    c17.458-7.612,36.017-11.472,55.16-11.472c28.929,0,56.66,8.868,80.197,25.644c3.978,2.834,9.421,2.382,12.875-1.072    l44.792-44.792c2.86-2.86,3.715-7.161,2.167-10.898s-5.194-6.173-9.239-6.173h-18.624c-8.133,0-14.75-6.617-14.75-14.75    c0-8.134,6.617-14.751,14.75-14.751h78.377c8.133,0,14.75,6.617,14.75,14.751V115.838z"/>
		<path d="M465.996,31.308c-2.63,0-5.21,1.07-7.07,2.93c-1.86,1.86-2.93,4.44-2.93,7.07c0,2.64,1.07,5.21,2.93,7.07    c1.86,1.86,4.44,2.93,7.07,2.93c2.63,0,5.21-1.07,7.07-2.93s2.93-4.43,2.93-7.07c0-2.63-1.07-5.21-2.93-7.07    S468.625,31.308,465.996,31.308z"/>
		<path d="M465.996,58.31c-5.523,0-10,4.477-10,10v10.687c0,5.523,4.477,10,10,10s10-4.477,10-10V68.31    C475.996,62.787,471.518,58.31,465.996,58.31z"/>
	</g>
</g>















</svg>
