<?xml version="1.0" encoding="iso-8859-1"?>
<!-- Generator: Adobe Illustrator 19.0.0, SVG Export Plug-In . SVG Version: 6.00 Build 0)  -->
<svg version="1.1" id="Layer_1" xmlns="http://www.w3.org/2000/svg" xmlns:xlink="http://www.w3.org/1999/xlink" x="0px" y="0px"
	 viewBox="0 0 512 512" style="enable-background:new 0 0 512 512;" xml:space="preserve">
<g>
	<g>
		<path d="M164.494,141.617h-21.787c-4.512,0-8.17,3.658-8.17,8.17s3.658,8.17,8.17,8.17h14.082
			c1.121,3.173,4.148,5.447,7.705,5.447c4.512,0,8.17-3.658,8.17-8.17v-5.447C172.664,145.275,169.006,141.617,164.494,141.617z"/>
	</g>
</g>
<g>
	<g>
		<path d="M244.017,141.617H222.23c-4.512,0-8.17,3.658-8.17,8.17v5.447c0,4.512,3.658,8.17,8.17,8.17
			c3.558,0,6.584-2.273,7.705-5.447h14.082c4.512,0,8.17-3.658,8.17-8.17S248.529,141.617,244.017,141.617z"/>
	</g>
</g>
<g>
	<g>
		<path d="M211.336,190.638h-35.949c-4.512,0-8.17,3.658-8.17,8.17s3.658,8.17,8.17,8.17h35.949c4.512,0,8.17-3.658,8.17-8.17
			S215.848,190.638,211.336,190.638z"/>
	</g>
</g>
<g>
	<g>
		<path d="M305.105,114.658c-1.07-3.405-4.226-5.721-7.794-5.721h-20.613c-29.779,0-57.877-13.073-77.089-35.869
			c-1.552-1.842-3.838-2.905-6.247-2.905s-4.695,1.063-6.247,2.905c-19.212,22.796-47.31,35.869-77.089,35.869H89.413
			c-3.569,0-6.726,2.317-7.794,5.721c-3.559,11.329-5.363,23.149-5.363,35.13v27.234c0,64.573,52.533,117.106,117.106,117.106
			s117.106-52.533,117.106-117.106v-27.234C310.468,137.806,308.664,125.987,305.105,114.658z M294.128,177.021
			c0,55.563-45.203,100.766-100.766,100.766c-55.563,0-100.766-45.203-100.766-100.766v-27.234c0-8.315,1.008-16.534,3-24.511h14.43
			c31.505,0,61.39-12.59,83.336-34.831c21.946,22.241,51.831,34.831,83.336,34.831h14.43c1.992,7.977,3,16.197,3,24.511V177.021z"/>
	</g>
</g>
<g>
	<g>
		<path d="M483.677,241.143c-4.281,0-8.341,0.96-11.983,2.668v-18.213c0-15.617-12.706-28.323-28.323-28.323
			c-4.281,0-8.341,0.96-11.983,2.668v-2.998c0-15.617-12.706-28.323-28.323-28.323c-15.617,0-28.323,12.706-28.323,28.323v2.672
			c-2.136-1.002-4.417-1.742-6.803-2.185c-4.579-11.901-13.416-21.725-24.788-27.524v-20.121C343.149,67.194,275.955,0,193.362,0
			S43.574,67.194,43.574,149.787v20.127c-17.103,8.751-28.246,26.613-28.246,46.1c0,9.562,2.559,18.702,7.447,26.749
			c-7.79,13.037-11.882,27.855-11.882,43.194c0,33.843,19.985,63.765,50.052,77.104C23.452,398.351,0,448.4,0,503.83
			c0,4.512,3.658,8.17,8.17,8.17s8.17-3.658,8.17-8.17c0-67.569,38.058-126.407,93.859-156.231
			c2.126,10.685,6.753,21.228,12.748,31.233c0.216,0.447,0.469,0.869,0.759,1.266c22.395,36.514,62.568,65.526,64.907,67.197
			c1.421,1.014,3.084,1.521,4.747,1.521s3.328-0.507,4.747-1.521c3.007-2.147,68.478-49.44,78.431-99.786
			c6.047,3.231,11.93,6.83,17.626,10.787l0.032,44.803c0,60.048,49.06,108.9,109.365,108.9c29.089,0,56.354-11.244,76.773-31.661
			C500.755,459.921,512,432.656,512,403.568V269.467C512,253.85,499.294,241.143,483.677,241.143z M431.387,225.599
			c0-6.608,5.376-11.983,11.983-11.983c6.607,0,11.983,5.376,11.983,11.983V334.13h-23.966V225.599z M391.081,196.946
			c0-6.607,5.376-11.983,11.983-11.983s11.983,5.376,11.983,11.983V334.13h-23.966V196.946z M362.016,213.327
			c0.159-0.003,0.318-0.012,0.477-0.024c0.089-0.002,0.175-0.013,0.265-0.013c6.607,0,11.983,5.376,11.983,11.983V334.13h-23.966
			V225.273C350.774,218.917,355.754,213.714,362.016,213.327z M193.358,430.41c-9.495-7.379-31.291-25.382-47.686-46.955h95.352
			C224.627,405.018,202.843,423.03,193.358,430.41z M251.819,367.115H134.886c-4.878-8.793-8.321-17.859-9.325-26.798
			c20.894-8.695,43.795-13.508,67.801-13.508c23.594,0,46.514,4.576,67.808,13.42C260.176,349.192,256.721,358.289,251.819,367.115z
			 M294.128,302.667l0.025,36.109c-30.282-18.564-64.819-28.308-100.791-28.308c-28.003,0-54.63,5.992-78.68,16.747
			c-0.65,0.2-1.263,0.486-1.832,0.832c-13.48,6.198-26.127,13.904-37.73,22.897c-28.377-8.769-47.885-34.961-47.885-64.987
			c0-13.911,4.171-27.287,12.061-38.683c2.026-2.927,1.925-6.829-0.252-9.645c-4.825-6.245-7.375-13.719-7.375-21.615
			c0-14.665,9.224-27.985,22.951-33.146c3.185-1.197,5.295-4.244,5.295-7.647v-25.433c0-73.583,59.864-133.447,133.447-133.447
			c73.583,0,133.447,59.864,133.447,133.447v25.433c0,3.403,2.11,6.45,5.295,7.648c8.204,3.084,14.877,9.07,18.873,16.659
			c-9.752,4.478-16.543,14.331-16.543,25.746v51.733c-3.642-1.708-7.702-2.668-11.983-2.668
			C306.834,274.338,294.128,287.045,294.128,302.667z M495.661,403.568h-0.001c0,50.779-41.314,92.091-92.097,92.091
			c-51.294,0-93.025-41.522-93.025-92.566l-0.034-48.497c0.022-0.356,0.024-0.712-0.001-1.068l-0.035-50.868
			c0-6.607,5.376-11.983,11.983-11.983c6.607,0,11.983,5.376,11.983,11.983v72.319c0,4.499,3.703,8.152,8.203,8.17
			c29.209,0.118,52.875,24.216,52.757,53.721c-0.018,4.512,3.625,8.185,8.138,8.203c4.531,0,8.185-3.636,8.203-8.138
			c0.075-18.672-7.012-36.228-19.957-49.435c-11.092-11.317-25.403-18.329-41.001-20.191v-16.84h120.23
			c4.512,0,8.17-3.658,8.17-8.17c0-4.144-3.088-7.559-7.087-8.091v-67.735c1.334-5.161,6.017-8.99,11.59-8.99
			c6.607,0,11.983,5.376,11.983,11.983V403.568z"/>
	</g>
</g>
<g>
</g>
<g>
</g>
<g>
</g>
<g>
</g>
<g>
</g>
<g>
</g>
<g>
</g>
<g>
</g>
<g>
</g>
<g>
</g>
<g>
</g>
<g>
</g>
<g>
</g>
<g>
</g>
<g>
</g>
</svg>
