<svg id="Layer_1" enable-background="new 0 0 512 512" height="512" viewBox="0 0 512 512" width="512" xmlns="http://www.w3.org/2000/svg"><path d="m204.509 441.464h21.025v31.81c0 16.735 13.567 30.302 30.302 30.302 16.735 0 30.302-13.567 30.302-30.302v-31.81h21.353c14.52 0 26.291-11.771 26.291-26.292 0-14.52-11.771-26.291-26.291-26.291h-21.353v-95.753h-60.275l-.328 95.753h-21.025c-14.52 0-26.291 11.771-26.291 26.291-.001 14.521 11.77 26.292 26.29 26.292z" fill="#ef7d92"/><path d="m286.138 368.858v-71.745h-60.275l-.237 71.745c15.361 4.263 47.951 3.112 60.512 0z" fill="#eb6773"/><path d="m256 8.425c-92.185 0-166.916 74.731-166.916 166.916s74.731 166.916 166.916 166.916 166.916-74.731 166.916-166.916-74.731-166.916-166.916-166.916zm0 270.142c-57.01 0-103.226-46.216-103.226-103.226s46.216-103.225 103.226-103.225 103.226 46.216 103.226 103.225-46.216 103.226-103.226 103.226z" fill="#f6a7ae"/><path d="m155.526 199.072c-1.794-7.62-2.752-15.563-2.752-23.731 0-57.01 46.216-103.225 103.226-103.225 8.125 0 16.028.947 23.611 2.723 22.94-14.424 46.838-27.245 72.623-35.878-27.198-19.228-60.392-30.536-96.234-30.536-92.185 0-166.916 74.731-166.916 166.916 0 40.896 14.716 78.35 39.131 107.375.477-.972 7.407-46.934 27.311-83.644z" fill="#f1919b"/><path d="m431.04 175.04c0-96.518-78.522-175.04-175.04-175.04-47.242 0-91.523 18.534-124.686 52.188-2.907 2.95-2.873 7.699.078 10.606 2.95 2.907 7.699 2.873 10.605-.078 30.322-30.77 70.81-47.716 114.003-47.716 88.246 0 160.04 71.793 160.04 160.04 0 88.246-71.794 160.04-160.04 160.04s-160.04-71.794-160.04-160.04c0-32.459 9.662-63.71 27.941-90.375 2.342-3.417 1.471-8.085-1.946-10.427-3.416-2.343-8.085-1.471-10.426 1.945-19.999 29.174-30.569 63.358-30.569 98.857 0 83.495 58.768 153.511 137.109 170.888l-.124 35.949h-13.629c-18.687 0-33.89 15.203-33.89 33.89s15.203 33.89 33.89 33.89h13.604v24.429c0 20.906 17.009 37.915 37.915 37.915s37.915-17.008 37.915-37.915v-24.429h13.934c18.687 0 33.89-15.203 33.89-33.89s-15.203-33.89-33.89-33.89h-13.934v-35.91c78.432-17.308 137.29-87.368 137.29-170.927zm-144.79 221.837h21.434c10.416 0 18.89 8.474 18.89 18.89s-8.474 18.89-18.89 18.89h-21.434c-4.143 0-7.5 3.358-7.5 7.5v31.929c0 12.635-10.279 22.915-22.915 22.915s-22.915-10.279-22.915-22.915v-31.929c0-4.142-3.357-7.5-7.5-7.5h-21.104c-10.416 0-18.89-8.474-18.89-18.89s8.474-18.89 18.89-18.89h21.104c4.132 0 7.485-3.342 7.5-7.474l.14-40.828c7.509.987 15.165 1.504 22.94 1.504 7.709 0 15.302-.506 22.75-1.477v40.775c0 4.143 3.357 7.5 7.5 7.5z"/><path d="m367.111 175.04c0-61.267-49.845-111.111-111.111-111.111s-111.111 49.844-111.111 111.111 49.845 111.111 111.111 111.111 111.111-49.844 111.111-111.111zm-207.222 0c0-52.996 43.115-96.111 96.111-96.111s96.111 43.115 96.111 96.111-43.115 96.111-96.111 96.111-96.111-43.115-96.111-96.111z"/></svg>